<?xml version="1.0" standalone="no"?>
<!DOCTYPE svg PUBLIC "-//W3C//DTD SVG 20010904//EN"
 "http://www.w3.org/TR/2001/REC-SVG-20010904/DTD/svg10.dtd">
<svg version="1.0" xmlns="http://www.w3.org/2000/svg"
 width="872.000000pt" height="286.000000pt" viewBox="0 0 872.000000 286.000000"
 preserveAspectRatio="xMidYMid meet">

<g transform="translate(0.000000,286.000000) scale(0.100000,-0.100000)"
fill="#000000" stroke="none">
<path d="M2906 2448 c-3 -7 -14 -46 -26 -86 -53 -185 -253 -486 -548 -829 -94
-110 -132 -142 -132 -114 0 5 15 58 34 118 80 257 115 498 83 576 -14 33 -20
37 -51 37 -55 0 -86 -36 -173 -203 -170 -324 -302 -506 -663 -917 -163 -184
-328 -344 -423 -407 -91 -60 -195 -96 -262 -91 -128 11 -245 118 -281 258 -40
156 22 290 168 367 46 24 64 28 138 28 74 0 93 -4 150 -31 36 -17 83 -49 105
-72 21 -23 43 -42 47 -42 4 0 12 18 18 41 24 87 -41 204 -144 256 -74 38 -207
44 -299 14 -258 -86 -391 -336 -318 -593 29 -100 67 -161 147 -237 76 -73 138
-104 231 -117 110 -14 277 52 438 172 114 86 344 310 492 482 l115 132 68 0
c38 0 71 -3 73 -7 3 -5 -11 -57 -30 -118 -48 -148 -55 -259 -23 -328 28 -60
66 -99 124 -126 89 -44 151 -36 92 10 -33 26 -76 115 -76 157 0 40 49 190 85
262 34 67 82 120 109 120 12 0 134 -53 272 -118 281 -134 411 -189 534 -226
174 -52 382 -73 426 -42 28 20 72 122 76 175 l3 43 -105 -1 c-155 -2 -332 33
-605 120 -146 46 -432 156 -440 168 -2 5 84 98 193 207 341 344 476 528 541
737 21 68 21 69 2 96 -25 34 -111 115 -139 130 -18 9 -23 9 -26 -1z m-894
-1013 l-71 -145 -40 0 c-22 0 -42 4 -45 9 -5 8 53 95 157 234 82 108 82 70 -1
-98z"/>
<path d="M1846 2139 c-4 -19 -23 -48 -46 -71 -24 -22 -35 -38 -26 -38 24 0 75
-50 85 -83 5 -18 10 -24 10 -14 2 40 33 86 69 103 l37 17 -28 8 c-39 10 -57
28 -77 72 l-17 38 -7 -32z"/>
<path d="M3501 1932 c-19 -30 -189 -257 -237 -318 -6 -8 -38 -19 -70 -25 -108
-19 -134 -28 -134 -48 0 -36 23 -42 78 -21 29 11 52 16 52 11 0 -15 -111 -134
-169 -181 -108 -89 -123 -110 -76 -110 67 0 166 79 288 230 74 90 74 91 112
88 21 -2 29 -8 26 -18 -2 -8 -12 -46 -23 -84 -38 -130 -13 -226 58 -226 27 0
32 21 9 40 -8 7 -15 22 -15 34 0 34 40 163 112 361 85 234 86 234 53 274 -15
17 -30 31 -33 31 -4 0 -18 -17 -31 -38z m-67 -239 c-9 -21 -20 -50 -26 -65 -7
-20 -17 -28 -34 -28 -13 0 -24 3 -24 8 0 8 89 122 96 122 2 0 -3 -17 -12 -37z"/>
<path d="M6111 1914 c-13 -30 -45 -85 -71 -122 -51 -72 -246 -292 -258 -292
-5 0 7 46 26 103 26 75 36 126 40 192 l4 90 -36 18 c-58 27 -61 25 -63 -59 -4
-145 -82 -434 -130 -486 -18 -19 -23 -32 -18 -45 5 -10 8 -20 8 -23 -1 -3 -4
-24 -8 -47 -6 -41 -6 -43 18 -43 31 0 40 12 55 75 11 45 57 105 80 105 4 0 16
-16 26 -35 52 -95 202 -192 315 -202 58 -6 59 -5 75 25 9 17 16 35 16 40 0 5
-37 14 -82 21 -104 14 -176 49 -250 119 -32 30 -58 58 -58 61 0 3 45 44 101
91 146 124 269 273 299 365 12 35 11 38 -21 71 -18 19 -35 34 -38 34 -4 0 -17
-25 -30 -56z"/>
<path d="M4106 1818 c-4 -24 -16 -75 -27 -115 l-21 -71 -34 15 c-30 15 -36 15
-78 -1 -56 -21 -97 -75 -126 -161 -21 -64 -81 -146 -96 -132 -5 4 0 47 10 95
30 138 31 157 7 181 -28 28 -63 27 -98 -3 l-28 -24 -28 24 c-46 40 -52 33 -72
-83 -26 -147 -26 -210 -1 -229 36 -26 43 -17 51 61 6 65 12 84 47 135 63 95
68 92 42 -30 -27 -127 -5 -190 64 -190 27 0 42 8 65 34 l30 34 32 -34 c42 -45
82 -46 124 -3 l31 30 11 -25 c14 -31 61 -49 94 -36 36 14 77 76 115 174 28 74
36 86 56 86 l24 0 -31 -59 c-42 -79 -48 -137 -19 -173 29 -38 84 -39 123 -2
l28 25 29 -31 c37 -39 59 -35 114 22 28 29 41 37 45 27 2 -7 17 -26 32 -41 37
-38 81 -37 119 0 l28 28 24 -30 c34 -42 81 -41 119 2 32 36 39 39 39 17 0 -15
29 -35 53 -35 11 0 16 19 19 79 5 81 12 98 76 176 l25 30 -7 -45 c-13 -84 -19
-178 -12 -205 4 -17 18 -31 38 -40 37 -15 53 -11 90 22 l26 25 7 -22 c10 -32
50 -43 86 -25 31 17 78 75 111 139 18 34 18 40 5 54 -14 13 -18 10 -37 -29
-22 -44 -77 -109 -92 -109 -15 0 -8 42 23 135 35 103 34 139 -6 157 -14 6 -28
9 -31 6 -3 -3 -16 -44 -28 -90 -27 -98 -54 -154 -90 -187 l-26 -24 0 36 c0 20
9 76 20 124 20 86 20 88 2 113 -25 34 -60 36 -103 7 l-35 -24 -28 23 c-42 37
-52 31 -60 -31 -10 -86 -46 -183 -80 -218 l-31 -32 -3 32 c-2 18 1 48 7 68 8
31 6 39 -16 65 -13 17 -19 30 -13 30 9 0 11 11 7 36 -23 140 -194 87 -253 -78
-29 -82 -77 -148 -108 -148 -13 0 -4 41 29 139 36 109 36 129 -5 151 -31 17
-39 12 -50 -32 -32 -125 -53 -181 -81 -213 -32 -36 -59 -46 -59 -21 0 7 23 57
50 111 56 110 61 136 26 158 -22 15 -25 15 -42 -5 -11 -11 -31 -29 -46 -39
l-26 -19 5 38 c5 34 1 42 -23 61 l-27 22 -14 -38 c-7 -21 -12 -56 -12 -78 3
-76 -100 -260 -128 -231 -9 9 16 122 63 274 24 80 44 155 44 168 0 23 -42 64
-65 64 -7 0 -15 -19 -19 -42z m-79 -230 c26 -33 -47 -207 -95 -225 -25 -10
-44 27 -37 71 17 114 94 202 132 154z m783 -14 c13 -33 13 -34 -5 -28 -12 5
-15 -2 -15 -33 0 -51 -55 -147 -88 -151 -16 -3 -25 4 -32 24 -14 36 19 149 54
187 33 36 73 36 86 1z"/>
<path d="M7246 1818 c-4 -24 -16 -75 -27 -114 l-21 -72 -27 14 c-33 18 -42 17
-90 -2 -51 -20 -87 -68 -122 -162 -28 -74 -80 -144 -96 -129 -4 5 1 47 11 95
31 142 31 150 5 178 -41 43 -54 33 -67 -53 -14 -88 -60 -196 -90 -212 -12 -6
-23 -7 -26 -2 -7 10 6 81 29 171 17 66 11 88 -31 111 -32 17 -41 6 -48 -62
-12 -105 -71 -219 -113 -219 -23 0 -14 29 37 127 56 106 61 134 27 156 -21 13
-25 12 -67 -24 -50 -43 -66 -49 -50 -20 17 33 11 58 -17 81 l-27 21 -17 -48
c-9 -26 -14 -60 -12 -75 8 -41 -69 -194 -110 -219 -42 -25 -62 -24 -81 3 -19
26 -20 38 -5 38 29 0 99 63 123 112 30 60 32 85 10 116 -11 17 -25 22 -57 22
-57 0 -105 -34 -142 -101 -24 -44 -30 -66 -30 -121 0 -80 21 -116 82 -137 37
-13 45 -13 87 3 55 21 89 65 136 179 27 63 37 77 55 77 21 0 21 -2 -12 -66
-18 -37 -33 -82 -33 -101 0 -96 75 -125 149 -58 l39 35 12 -31 c24 -56 90 -55
132 2 l22 29 12 -29 c18 -43 46 -55 87 -38 18 8 41 26 50 41 l18 27 33 -36
c43 -46 82 -47 125 -4 l31 30 11 -25 c14 -31 61 -49 94 -36 13 5 34 23 46 40
l23 30 12 -29 c18 -43 46 -55 88 -37 19 8 39 24 46 35 12 24 30 28 30 7 0 -23
50 -57 74 -50 12 3 36 21 54 40 17 18 32 28 32 20 0 -18 33 -46 53 -46 13 0
17 10 17 43 1 79 16 125 60 183 23 30 44 53 47 51 3 -3 -2 -40 -11 -82 -26
-124 -17 -176 33 -201 31 -16 56 -7 92 31 l30 32 34 -34 c35 -35 79 -44 104
-20 11 10 13 8 7 -13 -3 -14 -6 -28 -6 -32 0 -4 -29 -5 -64 -1 -86 8 -130 -2
-165 -38 -81 -80 -27 -199 89 -199 71 0 123 33 166 106 10 17 13 17 57 -9 50
-29 76 -34 95 -15 25 25 12 46 -44 74 -31 16 -58 33 -61 40 -2 6 17 67 42 136
25 69 42 133 39 142 -4 9 -15 21 -27 27 -15 9 -17 13 -7 19 11 7 11 16 1 50
-10 33 -20 45 -48 57 -86 35 -147 -19 -220 -197 -19 -48 -58 -100 -75 -100
-12 0 -7 47 18 162 l18 87 -24 26 c-30 32 -60 32 -98 0 l-30 -25 -28 25 c-23
22 -54 34 -54 21 0 -29 -34 -167 -50 -203 -21 -48 -56 -93 -72 -93 -14 0 -9
57 14 156 l21 94 -23 25 c-42 44 -57 34 -70 -47 -7 -40 -21 -95 -32 -123 -19
-49 -62 -105 -81 -105 -12 0 0 96 19 159 20 65 17 94 -9 119 -41 39 -52 30
-65 -55 -7 -43 -25 -106 -41 -140 -29 -60 -63 -94 -76 -73 -9 15 11 105 61
269 24 79 44 154 44 167 0 23 -42 64 -65 64 -7 0 -15 -19 -19 -42z m-934 -248
c-4 -42 -91 -135 -108 -117 -3 3 5 28 17 56 33 77 98 120 91 61z m856 17 c14
-17 -16 -130 -49 -179 -46 -71 -97 -54 -83 27 19 116 92 201 132 152z m1020 1
c14 -14 16 -48 3 -48 -5 0 -12 -17 -16 -37 -19 -104 -102 -185 -119 -117 -18
71 47 214 98 214 12 0 27 -5 34 -12z m-145 -399 c20 -5 37 -12 37 -15 0 -16
-34 -65 -60 -88 -40 -33 -83 -34 -115 -1 -41 40 -27 76 40 100 49 17 51 17 98
4z"/>
<path d="M4500 1766 c0 -69 2 -76 27 -96 l27 -21 12 48 c19 70 17 86 -14 116
-45 43 -52 36 -52 -47z"/>
<path d="M5350 1813 c0 -16 -3 -44 -6 -64 -5 -29 -1 -41 21 -68 31 -36 37 -34
53 25 17 60 15 72 -17 105 -37 36 -51 37 -51 2z"/>
<path d="M3750 875 c0 -112 3 -135 15 -135 12 0 15 22 17 113 l3 112 40 -113
c27 -76 44 -111 54 -110 7 2 29 48 48 103 19 55 39 104 44 109 5 6 9 -34 9
-102 0 -68 4 -112 10 -112 6 0 10 52 10 135 0 126 -1 135 -19 135 -15 0 -26
-22 -57 -110 -20 -61 -40 -113 -44 -115 -3 -2 -23 48 -44 111 -34 104 -40 114
-62 114 l-24 0 0 -135z"/>
<path d="M4269 983 c-34 -88 -89 -236 -89 -239 0 -2 6 -4 13 -4 8 0 21 18 30
40 l15 40 60 0 60 0 16 -40 c9 -24 22 -40 32 -40 11 0 14 5 10 18 -95 250
-122 290 -147 225z m67 -109 c6 -23 4 -24 -41 -24 -34 0 -46 4 -42 13 2 6 13
36 23 65 l19 53 18 -42 c9 -23 20 -52 23 -65z"/>
<path d="M4590 875 c0 -113 2 -135 15 -135 11 0 15 11 15 43 0 34 6 49 28 70
l27 26 48 -69 c33 -48 54 -70 68 -70 19 0 17 6 -17 53 -21 28 -47 64 -58 80
l-20 27 54 55 c43 44 50 55 34 55 -11 0 -48 -28 -84 -65 -35 -36 -68 -65 -72
-65 -4 0 -8 29 -8 65 0 51 -3 65 -15 65 -13 0 -15 -22 -15 -135z"/>
<path d="M5053 993 c-4 -10 -26 -69 -50 -131 -24 -62 -43 -115 -43 -117 0 -3
6 -5 14 -5 8 0 21 18 30 40 l16 40 59 0 59 0 16 -40 c9 -24 22 -40 32 -40 19
0 21 -10 -44 152 -35 88 -51 118 -65 118 -10 0 -20 -8 -24 -17z m51 -81 l25
-62 -51 0 c-36 0 -49 4 -45 13 2 6 13 35 23 64 10 29 20 51 21 49 2 -2 14 -31
27 -64z"/>
<path d="M5400 990 c-25 -25 -26 -72 -2 -93 9 -8 43 -23 75 -32 82 -24 100
-69 37 -95 -40 -17 -98 3 -111 38 -7 19 -13 22 -21 14 -17 -17 6 -60 38 -72
75 -29 154 4 154 64 0 42 -21 60 -93 81 -60 17 -82 39 -66 67 20 36 99 30 122
-8 4 -8 14 -14 22 -14 23 0 -2 45 -32 59 -39 18 -100 14 -123 -9z"/>
<path d="M5792 994 c-28 -19 -30 -74 -3 -98 10 -10 43 -24 72 -31 62 -17 84
-35 75 -63 -16 -50 -127 -47 -147 5 -5 13 -13 21 -19 18 -17 -10 -11 -35 15
-60 18 -19 35 -25 69 -25 60 0 93 16 106 54 16 45 -11 76 -86 99 -73 22 -90
37 -75 65 21 39 100 36 124 -4 4 -8 14 -14 22 -14 22 0 3 43 -26 57 -33 18
-100 16 -127 -3z"/>
<path d="M6194 913 c-20 -54 -43 -113 -50 -132 -18 -42 -17 -43 3 -39 9 2 22
19 28 38 l12 35 63 0 63 0 12 -35 c7 -20 20 -37 30 -39 21 -4 24 -14 -43 152
-34 84 -52 117 -64 117 -12 0 -27 -28 -54 -97z m84 -5 l21 -58 -50 0 c-37 0
-49 3 -46 13 3 6 14 36 23 65 10 29 21 49 24 45 4 -5 16 -34 28 -65z"/>
<path d="M6550 875 c0 -113 2 -135 15 -135 12 0 15 13 15 61 l0 60 42 -3 c40
-3 46 -7 82 -60 24 -35 47 -58 58 -58 15 0 14 7 -13 51 -18 28 -38 53 -45 56
-22 8 -17 18 16 30 54 20 50 102 -6 123 -14 6 -57 10 -95 10 l-69 0 0 -135z
m170 86 c25 -47 -2 -71 -81 -71 l-59 0 0 45 0 45 65 0 c53 0 66 -3 75 -19z"/>
</g>
</svg>
